<svg width="47" height="47" viewBox="0 0 47 47" fill="none" xmlns="http://www.w3.org/2000/svg">
<g clip-path="url(#clip0)">
<path d="M28.6723 33.4165C28.6327 32.7597 28.3447 32.1318 27.8615 31.6487L24.3748 28.1613C24.938 27.9831 25.4463 27.6764 25.8603 27.2625L25.949 27.1737C27.4856 25.6371 27.3623 23.0138 25.6743 21.3257C24.871 20.5226 23.8321 20.0443 22.7487 19.9789C21.6229 19.9108 20.5856 20.2917 19.8263 21.051L19.7377 21.1397C19.3235 21.5538 19.0167 22.0623 18.8385 22.6257L15.3513 19.1385C14.3238 18.1109 12.7138 18.0488 11.7623 19.0001L8.60181 22.1607C8.21507 22.5474 8.05425 23.1096 8.17156 23.6643C8.29916 24.2675 8.71986 24.7607 9.29699 24.9837C9.66133 25.1245 9.99171 25.3414 10.2788 25.6285L10.3789 25.7286C10.8645 26.2142 11.1531 26.8315 11.1914 27.4667C11.2273 28.0601 11.0363 28.5977 10.6537 28.9803C10.271 29.3629 9.7333 29.5544 9.14011 29.5179C8.50488 29.4796 7.88754 29.191 7.40203 28.7054L7.30188 28.6053C7.01483 28.3182 6.79792 27.9878 6.6571 27.6236C6.43413 27.0464 5.9409 26.6257 5.33762 26.4981C4.78289 26.3808 4.22073 26.5416 3.83389 26.9283L0.677005 30.0854C-0.274284 31.0368 -0.212321 32.6467 0.815343 33.6744L4.30252 37.1616C3.73907 37.3399 3.23061 37.6467 2.81651 38.0607L2.72774 38.1495C1.19125 39.6861 1.31453 42.3093 3.00258 43.9975C3.89879 44.8936 5.05819 45.3488 6.17893 45.3486C7.16942 45.3486 8.1297 44.993 8.85049 44.2721L8.93926 44.1834C9.35335 43.7694 9.66005 43.261 9.83832 42.6974L13.3255 46.1846C13.8087 46.6678 14.4366 46.9557 15.0934 46.9955C15.1437 46.9985 15.1939 47 15.2439 47C15.8779 47 16.48 46.7576 16.9146 46.323L19.9207 43.3169C20.1542 43.8847 20.4979 44.3977 20.9431 44.843L21.0432 44.9432C22.7313 46.6311 25.3546 46.7544 26.8912 45.2179C28.4278 43.6813 28.3045 41.058 26.6165 39.3699L26.5163 39.2698C26.0711 38.8245 25.5581 38.4809 24.9902 38.2474L27.9998 35.2378C28.4688 34.7687 28.7139 34.105 28.6723 33.4165ZM26.7017 33.9396L23.5413 37.1C23.1546 37.4868 22.9937 38.0489 23.111 38.6036C23.2385 39.2069 23.6592 39.7001 24.2364 39.9232C24.6008 40.064 24.9312 40.2809 25.2182 40.568L25.3184 40.6682C26.2906 41.6404 26.4139 43.099 25.5931 43.9197C24.7724 44.7405 23.3136 44.6172 22.3416 43.645L22.2414 43.5448C21.9544 43.2578 21.7374 42.9274 21.5966 42.5631C21.3736 41.9859 20.8803 41.5652 20.277 41.4377C19.7222 41.3204 19.1601 41.4813 18.7734 41.868L15.6166 45.0249C15.4895 45.152 15.3222 45.1705 15.2042 45.163C14.9987 45.1506 14.7872 45.0498 14.6239 44.8866L13.225 43.4877L16.2713 40.4414C16.6298 40.0829 16.6298 39.5016 16.2713 39.1431C15.9129 38.7845 15.3316 38.7846 14.9731 39.1431L11.9267 42.1894L10.9761 41.2389C10.6285 40.8913 10.1706 40.7032 9.70916 40.7032C9.54961 40.7032 9.38952 40.7257 9.23347 40.7719C8.6691 40.9391 8.25886 41.3833 8.13613 41.9602C8.05902 42.3225 7.89241 42.6337 7.64089 42.8853L7.55212 42.9739C6.73146 43.7947 5.27262 43.6714 4.30059 42.6992C3.32837 41.727 3.20509 40.2684 4.02575 39.4477L4.11452 39.3589C4.36604 39.1074 4.67723 38.9408 5.03955 38.8636C5.61659 38.7409 6.06079 38.3306 6.22795 37.7661C6.40769 37.1591 6.22869 36.4914 5.76098 36.0237L2.11353 32.376C1.95023 32.2128 1.84952 32.0012 1.83704 31.7957C1.82988 31.6777 1.84815 31.5105 1.9751 31.3833L4.98117 28.3772C5.2147 28.9451 5.55839 29.4581 6.00351 29.9034L6.10366 30.0035C7.7918 31.6916 10.4151 31.8148 11.9517 30.2783C13.4882 28.7417 13.3651 26.1184 11.6769 24.4303L11.5768 24.3301C11.1315 23.8849 10.6186 23.5413 10.0506 23.3078L13.0603 20.2981C13.292 20.0666 13.7466 20.13 14.053 20.4365L17.7006 24.084C18.1683 24.5518 18.836 24.7307 19.4431 24.551C20.0075 24.3839 20.4177 23.9396 20.5405 23.3626C20.6175 23.0003 20.7842 22.6892 21.0358 22.4376L21.1245 22.3489C21.5071 21.9664 22.0445 21.7754 22.6381 21.8112C23.2733 21.8495 23.8906 22.1381 24.3762 22.6237C25.3484 23.596 25.4717 25.0547 24.6509 25.8752L24.5622 25.964C24.3107 26.2155 23.9995 26.3821 23.6373 26.4592C23.0603 26.582 22.616 26.9922 22.4488 27.5567C22.2691 28.1637 22.448 28.8315 22.9158 29.2993L26.5634 32.9469C26.7266 33.1101 26.8274 33.3216 26.8398 33.5271C26.847 33.6452 26.8288 33.8124 26.7017 33.9396Z" fill="#F9B233"/>
<path d="M18.6262 36.7884C18.4554 36.6176 18.2186 36.5194 17.9772 36.5194C17.7357 36.5194 17.4989 36.6176 17.3282 36.7884C17.1574 36.9591 17.0592 37.196 17.0592 37.4374C17.0592 37.6788 17.1574 37.9156 17.3282 38.0864C17.4989 38.2571 17.7348 38.3553 17.9772 38.3553C18.2186 38.3553 18.4554 38.2571 18.6262 38.0864C18.7969 37.9156 18.8951 37.6788 18.8951 37.4374C18.8951 37.196 18.7969 36.9591 18.6262 36.7884Z" fill="#F9B233"/>
<path d="M38.1198 11.6578C37.949 11.487 37.7122 11.3888 37.4708 11.3888C37.2293 11.3888 36.9925 11.487 36.8218 11.6578C36.651 11.8285 36.5528 12.0653 36.5528 12.3068C36.5528 12.5482 36.651 12.785 36.8218 12.9558C36.9925 13.1265 37.2293 13.2247 37.4708 13.2247C37.7122 13.2247 37.949 13.1265 38.1198 12.9558C38.2905 12.785 38.3887 12.5482 38.3887 12.3068C38.3887 12.0653 38.2905 11.8285 38.1198 11.6578Z" fill="#F9B233"/>
<path d="M44.9941 21.0977C44.4954 20.599 43.892 20.2175 43.2434 19.9898L46.3208 16.9124C46.7898 16.4435 47.0349 15.7796 46.9933 15.0912C46.9536 14.4344 46.6657 13.8065 46.1825 13.3233L42.7641 9.90439C43.2461 9.72034 43.6843 9.43797 44.0458 9.07638L44.1346 8.98761C45.6711 7.45103 45.5479 4.82776 43.8597 3.13962C42.1718 1.45166 39.5484 1.32837 38.0117 2.86487L37.923 2.95364C37.5614 3.31531 37.2789 3.75364 37.0949 4.23576L33.6722 0.813212C32.6446 -0.214452 31.0346 -0.276506 30.0831 0.674874L27.0058 3.75227C26.7781 3.10363 26.3966 2.50025 25.8979 2.00152L25.7977 1.90137C24.1097 0.213321 21.4863 0.0901295 19.9497 1.62662C18.4132 3.16321 18.5364 5.78657 20.2244 7.47444L20.3247 7.57477C20.8233 8.07341 21.4267 8.45492 22.0754 8.68267L18.998 11.7601C18.0466 12.7114 18.1086 14.3214 19.1366 15.3493L22.7874 18.9974C23.2553 19.4652 23.9232 19.644 24.53 19.4644C25.0944 19.2972 25.5046 18.8529 25.6274 18.276C25.7044 17.9137 25.8711 17.6026 26.1227 17.351L26.2114 17.2623C26.5941 16.8797 27.1325 16.6884 27.725 16.7245C28.3602 16.7629 28.9775 17.0515 29.4631 17.5371C29.9487 18.0227 30.2372 18.6399 30.2756 19.2752C30.3114 19.8686 30.1204 20.4062 29.7378 20.7888L29.6491 20.8775C29.3976 21.129 29.0864 21.2956 28.7242 21.3727C28.1472 21.4955 27.703 21.9057 27.5358 22.4701C27.3561 23.077 27.5349 23.7446 28.0025 24.2124L31.6467 27.8595C32.1866 28.3993 32.8871 28.6727 33.5685 28.6727C34.1842 28.6727 34.7842 28.4494 35.2359 27.9978L38.3133 24.9204C38.5409 25.5689 38.9224 26.1724 39.4211 26.6711L39.5213 26.7713C41.2095 28.4593 43.8327 28.5825 45.3693 27.046C46.9058 25.5095 46.7826 22.8861 45.0946 21.198L44.9941 21.0977ZM44.0708 25.7476C43.2501 26.5683 41.7914 26.445 40.8192 25.4728L40.7191 25.3727C40.3993 25.053 40.1596 24.6664 40.026 24.2549C39.8319 23.6571 39.3314 23.1945 38.7198 23.0477C38.149 22.9106 37.5694 23.0674 37.1695 23.4673L33.9374 26.6993C33.8103 26.8264 33.6428 26.8447 33.5251 26.8374C33.3195 26.825 33.108 26.7242 32.945 26.5612L29.461 23.0745C30.0245 22.8962 30.533 22.5894 30.9471 22.1754L31.0357 22.0866C31.7951 21.3273 32.1758 20.2893 32.1079 19.1643C32.0425 18.0808 31.5642 17.0418 30.7611 16.2387C29.9579 15.4357 28.919 14.9572 27.8355 14.8918C26.7099 14.8242 25.6724 15.2046 24.9132 15.9639L24.8244 16.0527C24.4103 16.4668 24.1035 16.9753 23.9253 17.5388L20.4347 14.0508C20.2714 13.8875 20.1707 13.6759 20.1582 13.4704C20.151 13.3525 20.1693 13.1851 20.2962 13.0581L23.5284 9.82599C23.9283 9.42613 24.0851 8.84652 23.948 8.27555C23.801 7.664 23.3385 7.16352 22.7408 6.96946C22.3294 6.83581 21.9428 6.59613 21.6232 6.27649L21.5228 6.17616C20.5506 5.20394 20.4273 3.74538 21.2481 2.92463C22.0687 2.10387 23.5275 2.22706 24.4996 3.19938L24.5998 3.29953C24.9196 3.61925 25.1593 4.00581 25.2929 4.41733C25.4871 5.01511 25.9875 5.47768 26.5991 5.62446C27.17 5.76151 27.7496 5.60463 28.1495 5.20486L31.3814 1.97279C31.6131 1.74137 32.0676 1.80462 32.3741 2.11113L35.9408 5.67789C36.3929 6.12998 37.0419 6.3144 37.6343 6.15872C38.184 6.01441 38.6034 5.60197 38.7557 5.0555C38.8427 4.74413 38.9993 4.4737 39.2212 4.25173L39.31 4.16296C40.1306 3.34221 41.5894 3.4654 42.5615 4.43771C43.5338 5.40993 43.657 6.86849 42.8363 7.68924L42.7475 7.77801C42.5256 8.00007 42.2551 8.15667 41.9438 8.24351C41.3974 8.39599 40.9849 8.81522 40.8406 9.36499C40.6851 9.95745 40.8694 10.6064 41.3215 11.0585L44.8842 14.6213C45.0475 14.7845 45.1482 14.9961 45.1607 15.2016C45.1678 15.3196 45.1496 15.4869 45.0225 15.614L43.5494 17.0871L40.5072 14.0449C40.1487 13.6864 39.5675 13.6864 39.209 14.0449C38.8506 14.4033 38.8505 14.9846 39.209 15.3431L42.2512 18.3853L41.7903 18.8461C41.3906 19.246 41.2337 19.8256 41.3707 20.3965C41.5176 21.008 41.9802 21.5085 42.5779 21.7026C42.9894 21.8363 43.3759 22.076 43.6957 22.3958L43.7958 22.496C44.7683 23.4683 44.8915 24.927 44.0708 25.7476Z" fill="#F9B233"/>
</g>
<defs>
<clipPath id="clip0">
<rect width="47" height="47" fill="white"/>
</clipPath>
</defs>
</svg>
