<svg width="46" height="46" viewBox="0 0 46 46" fill="none" xmlns="http://www.w3.org/2000/svg">
<path d="M46 36.0333C46 34.7631 44.9703 33.7333 43.7 33.7333H39.1V29.1333H40.6333C40.9307 29.1332 41.2012 28.9611 41.3274 28.6918C41.4535 28.4225 41.4125 28.1045 41.2221 27.876L37.3888 23.276C37.2386 23.109 37.0246 23.0137 36.8 23.0137C36.5754 23.0137 36.3614 23.109 36.2112 23.276L32.3779 27.876C32.1875 28.1045 32.1465 28.4225 32.2726 28.6918C32.3988 28.9611 32.6693 29.1332 32.9667 29.1333H34.5V33.7333H25.3V32.2H26.8333C27.1307 32.1999 27.4012 32.0278 27.5274 31.7585C27.6535 31.4891 27.6125 31.1712 27.4221 30.9427L23.5888 26.3427C23.4386 26.1757 23.2246 26.0803 23 26.0803C22.7754 26.0803 22.5614 26.1757 22.4112 26.3427L18.5779 30.9427C18.3875 31.1712 18.3465 31.4891 18.4726 31.7585C18.5988 32.0278 18.8693 32.1999 19.1667 32.2H20.7V33.7333H11.5V29.1333H13.0333C13.3307 29.1332 13.6012 28.9611 13.7274 28.6918C13.8535 28.4225 13.8125 28.1045 13.6221 27.876L9.7888 23.276C9.6386 23.109 9.42458 23.0137 9.2 23.0137C8.97542 23.0137 8.7614 23.109 8.6112 23.276L4.77787 27.876C4.58753 28.1045 4.54652 28.4225 4.67265 28.6918C4.79877 28.9611 5.06927 29.1332 5.36667 29.1333H6.9V33.7333H2.3C1.02974 33.7333 0 34.7631 0 36.0333C0 37.3036 1.02974 38.3333 2.3 38.3333H3.93453L1.85993 41.4445C0.701949 41.6755 -0.0929772 42.7458 0.0205603 43.9212C0.134098 45.0965 1.11921 45.9949 2.3 46H43.7C44.9703 46 46 44.9702 46 43.7C46 42.4297 44.9703 41.4 43.7 41.4H42.0655L44.1401 38.2889C45.2196 38.0784 45.9991 37.1332 46 36.0333ZM35.2667 27.6H34.6035L36.8 24.9642L38.9965 27.6H38.3333C37.9099 27.6 37.5667 27.9432 37.5667 28.3667V33.7333H36.0333V28.3667C36.0333 27.9432 35.6901 27.6 35.2667 27.6ZM21.4667 30.6667H20.8035L23 28.0309L25.1965 30.6667H24.5333C24.1099 30.6667 23.7667 31.0099 23.7667 31.4333V33.7333H22.2333V31.4333C22.2333 31.0099 21.8901 30.6667 21.4667 30.6667ZM7.66667 27.6H7.0035L9.2 24.9642L11.3965 27.6H10.7333C10.3099 27.6 9.96667 27.9432 9.96667 28.3667V33.7333H8.43333V28.3667C8.43333 27.9432 8.09009 27.6 7.66667 27.6ZM1.53333 36.0333C1.53333 35.6099 1.87658 35.2667 2.3 35.2667H43.7C44.1234 35.2667 44.4667 35.6099 44.4667 36.0333C44.4667 36.4567 44.1234 36.8 43.7 36.8H2.3C1.87658 36.8 1.53333 36.4567 1.53333 36.0333ZM34.3988 41.4L36.4435 38.3333H38.4368L36.3921 41.4H34.3988ZM11.6012 38.3333L9.5565 41.4H7.56317L9.60787 38.3333H11.6012ZM13.4412 38.3333H15.4345L13.3898 41.4H11.3965L13.4412 38.3333ZM17.2745 38.3333H19.2679L17.2232 41.4H15.2298L17.2745 38.3333ZM21.1079 38.3333H23.1012L21.0565 41.4H19.0632L21.1079 38.3333ZM24.9412 38.3333H26.9345L24.8898 41.4H22.8965L24.9412 38.3333ZM28.7745 38.3333H30.7679L28.7232 41.4H26.7298L28.7745 38.3333ZM32.6079 38.3333H34.6012L32.5565 41.4H30.5632L32.6079 38.3333ZM7.76787 38.3333L5.72317 41.4H3.72983L5.77453 38.3333H7.76787ZM44.4667 43.7C44.4667 44.1234 44.1234 44.4667 43.7 44.4667H2.3C1.87658 44.4667 1.53333 44.1234 1.53333 43.7C1.53333 43.2766 1.87658 42.9333 2.3 42.9333H43.7C44.1234 42.9333 44.4667 43.2766 44.4667 43.7ZM38.2321 41.4L40.2768 38.3333H42.2702L40.2255 41.4H38.2321Z" fill="#F9B233"/>
<path d="M14.5667 16.1C14.5722 20.7553 18.3447 24.5278 23 24.5333C23.2477 24.5333 23.4846 24.5195 23.7146 24.4973C28.0755 24.1228 31.4268 20.477 31.4334 16.1C31.4948 12.8023 30.3209 9.60083 28.1421 7.12463C27.895 6.87807 27.5125 6.82959 27.2116 7.0067C26.9108 7.1838 26.7676 7.54178 26.8633 7.8775C27.137 8.83507 27.495 11.086 26.8579 11.9316C26.6704 12.1733 26.3708 12.3002 26.0667 12.2667C25.3652 12.2667 25.1919 11.9853 25.1268 11.8833C24.6024 11.0346 25.1781 8.86113 25.9862 7.24577C26.9202 5.5328 26.9138 3.46133 25.9693 1.75413C25.3595 0.685376 24.2304 0.0183447 23 0C22.724 0.001616 22.4701 0.15155 22.3353 0.392533C22.2004 0.634677 22.2048 0.930361 22.3468 1.1684C22.4327 1.31177 23.1419 2.60743 21.6913 4.05797C20.7396 4.92909 19.9965 6.00348 19.5171 7.2013C18.6347 6.30208 17.5138 5.67356 16.2863 5.38967C16.0149 5.32158 15.7278 5.40685 15.5376 5.61213C15.3473 5.8174 15.284 6.11005 15.3725 6.3756C15.795 7.99523 15.7895 9.69686 15.3564 11.3137C14.893 12.8696 14.6277 14.4777 14.5667 16.1ZM20.2201 21.5288C19.6185 20.6414 19.3847 19.5552 19.5677 18.4989C20.1071 18.9295 20.7765 19.1649 21.4667 19.1667C21.8901 19.1667 22.2334 18.8234 22.2334 18.4C22.2334 18.39 22.2334 17.93 22.3054 17.3044C22.821 18.0159 23.6552 18.4261 24.5334 18.4C25.2064 18.3984 25.86 18.1744 26.3925 17.7629C26.5635 18.9972 26.6049 20.7483 25.7669 21.8722C25.0876 22.6822 24.052 23.1043 23 23C21.8951 22.9682 20.8678 22.4245 20.2201 21.5288ZM16.8468 11.6863C17.2067 10.259 17.3006 8.7776 17.1235 7.3163C18.0545 7.7457 18.7962 8.50077 19.2089 9.4392C19.3305 9.79103 19.6873 10.0046 20.0549 9.94568C20.4225 9.88671 20.6946 9.57223 20.7 9.2C20.7 7.2174 22.0501 5.8673 22.7754 5.14203C23.6729 4.32014 24.1633 3.14499 24.1163 1.92893C24.3346 2.10464 24.5201 2.31745 24.6645 2.5576C25.3344 3.81173 25.3138 5.32187 24.61 6.5573C24.2689 7.24117 22.6228 10.751 23.8188 12.686C24.3065 13.4423 25.1696 13.87 26.0667 13.8C26.8521 13.8316 27.6038 13.4789 28.0815 12.8547C28.4937 12.2432 28.7208 11.5258 28.7355 10.7885C29.5096 12.4518 29.9073 14.2654 29.9 16.1C29.8999 17.9702 29.1378 19.7597 27.7894 21.0557C28.1255 19.3372 28.0496 17.5635 27.5678 15.88C27.478 15.5794 27.2142 15.3639 26.9018 15.3359C26.5894 15.3078 26.2914 15.4729 26.1495 15.7527C25.8298 16.3699 25.2239 16.7875 24.5334 16.8667C23.0322 16.8667 23 14.6587 23 14.5667C23.0004 14.2108 22.7558 13.9015 22.4094 13.8198C22.063 13.7381 21.706 13.9055 21.5472 14.224C21.0949 15.2423 20.825 16.3322 20.7499 17.444C20.3757 17.2209 20.0664 16.9037 19.8529 16.524C19.7144 16.2462 19.422 16.0793 19.1124 16.1013C18.8028 16.1233 18.537 16.3298 18.4391 16.6244C17.8786 18.0753 17.836 19.6752 18.3188 21.1539C16.9056 19.8532 16.101 18.0206 16.1 16.1C16.1627 14.6035 16.4125 13.1207 16.8437 11.6863H16.8468Z" fill="#F9B233"/>
</svg>
