<svg width="45" height="45" viewBox="0 0 45 45" fill="none" xmlns="http://www.w3.org/2000/svg">
<path d="M45 35.25C45 34.0074 43.9926 33 42.75 33H37.5V27H39.75C40.0429 27 40.309 26.8295 40.4314 26.5633C40.5537 26.2972 40.5099 25.9841 40.3192 25.7618L35.8192 20.5118C35.6726 20.3529 35.4662 20.2626 35.25 20.2626C35.0338 20.2626 34.8274 20.3529 34.6808 20.5118L30.1808 25.7618C29.9901 25.9841 29.9463 26.2972 30.0686 26.5633C30.191 26.8295 30.4571 27 30.75 27H33V33H24.75V31.5H26.25C26.5411 31.5002 26.806 31.332 26.9295 31.0684C27.0531 30.8049 27.013 30.4937 26.8268 30.27L23.0767 25.77C22.9294 25.6068 22.7199 25.5137 22.5 25.5137C22.2801 25.5137 22.0706 25.6068 21.9233 25.77L18.1733 30.27C17.987 30.4937 17.9469 30.8049 18.0705 31.0684C18.194 31.332 18.4589 31.5002 18.75 31.5H20.25V33H12V27H14.25C14.5429 27 14.809 26.8295 14.9314 26.5633C15.0537 26.2972 15.0099 25.9841 14.8193 25.7618L10.3193 20.5118C10.1726 20.3529 9.96621 20.2626 9.75 20.2626C9.53379 20.2626 9.32741 20.3529 9.18075 20.5118L4.68075 25.7618C4.49006 25.9841 4.44627 26.2972 4.56862 26.5633C4.69097 26.8295 4.95708 27 5.25 27H7.5V33H2.25C1.00736 33 0 34.0074 0 35.25C0 36.4927 1.00736 37.5 2.25 37.5H3.849L1.8195 40.5435C0.68669 40.7695 -0.0909559 41.8166 0.0201134 42.9664C0.131183 44.1162 1.09488 44.9951 2.25 45H42.75C43.9926 45 45 43.9927 45 42.75C45 41.5074 43.9926 40.5 42.75 40.5H41.151L43.1805 37.4565C44.2366 37.2507 44.9991 36.326 45 35.25ZM33.75 25.5H32.3805L35.25 22.1528L38.1195 25.5H36.75C36.3358 25.5 36 25.8358 36 26.25V33H34.5V26.25C34.5 25.8358 34.1642 25.5 33.75 25.5ZM21 30H20.3512L22.5 27.4215L24.6488 30H24C23.5858 30 23.25 30.3358 23.25 30.75V33H21.75V30.75C21.75 30.3358 21.4142 30 21 30ZM8.25 25.5H6.8805L9.75 22.1528L12.6195 25.5H11.25C10.8358 25.5 10.5 25.8358 10.5 26.25V33H9V26.25C9 25.8358 8.66421 25.5 8.25 25.5ZM1.5 35.25C1.5 34.8358 1.83579 34.5 2.25 34.5H42.75C43.1642 34.5 43.5 34.8358 43.5 35.25C43.5 35.6642 43.1642 36 42.75 36H2.25C1.83579 36 1.5 35.6642 1.5 35.25ZM33.651 40.5L35.6512 37.5H37.6012L35.601 40.5H33.651ZM11.349 37.5L9.34875 40.5H7.39875L9.399 37.5H11.349ZM13.149 37.5H15.099L13.0988 40.5H11.1488L13.149 37.5ZM16.899 37.5H18.849L16.8488 40.5H14.8988L16.899 37.5ZM20.649 37.5H22.599L20.5988 40.5H18.6488L20.649 37.5ZM24.399 37.5H26.349L24.3488 40.5H22.3988L24.399 37.5ZM28.149 37.5H30.099L28.0988 40.5H26.1488L28.149 37.5ZM31.899 37.5H33.849L31.8488 40.5H29.8988L31.899 37.5ZM7.599 37.5L5.59875 40.5H3.64875L5.649 37.5H7.599ZM43.5 42.75C43.5 43.1642 43.1642 43.5 42.75 43.5H2.25C1.83579 43.5 1.5 43.1642 1.5 42.75C1.5 42.3358 1.83579 42 2.25 42H42.75C43.1642 42 43.5 42.3358 43.5 42.75ZM37.401 40.5L39.4012 37.5H41.3512L39.351 40.5H37.401Z" fill="#F9B233"/>
<path d="M11.25 12.75H11.8343L11.2882 13.569C11.0584 13.9136 11.1514 14.3794 11.496 14.6093C11.8406 14.8391 12.3064 14.7461 12.5363 14.4015L13.6373 12.75H14.481L13.935 13.569C13.7863 13.7919 13.7678 14.0773 13.8865 14.3175C14.0052 14.5578 14.2431 14.7165 14.5105 14.7338C14.7779 14.7511 15.0343 14.6244 15.183 14.4015L16.284 12.75H19.6065C19.6761 13.0185 19.7834 13.2758 19.9252 13.5143L17.574 15.8655L15.6285 15.4763C15.2229 15.3961 14.829 15.6593 14.7478 16.0647C14.6665 16.47 14.9286 16.8647 15.3337 16.947L16.2997 17.1398L15.6998 17.7398L13.7498 17.3505C13.3442 17.2704 12.9502 17.5336 12.869 17.9389C12.7878 18.3443 13.0499 18.7389 13.455 18.8213L14.421 19.0148L14.0205 19.4153C13.8312 19.6059 13.758 19.8831 13.8284 20.1423C13.8989 20.4016 14.1023 20.6036 14.3621 20.6722C14.6218 20.7408 14.8984 20.6656 15.0878 20.475L15.4882 20.0745L15.681 21.0398C15.7523 21.389 16.0595 21.6398 16.416 21.6398C16.4663 21.6399 16.5166 21.6351 16.566 21.6255C16.9718 21.5441 17.2349 21.1494 17.154 20.7435L16.7655 18.7935L17.3655 18.1935L17.5582 19.1595C17.6295 19.5088 17.9368 19.7596 18.2933 19.7595C18.3436 19.7598 18.3939 19.7548 18.4432 19.7445C18.849 19.6631 19.1122 19.2684 19.0312 18.8625L18.642 16.9163L20.9932 14.565C21.2288 14.7096 21.4835 14.8202 21.75 14.8935V18.2168L20.1 19.317C19.7636 19.5498 19.6758 20.0092 19.9027 20.3497C20.1296 20.6901 20.5874 20.7859 20.9318 20.565L21.75 20.019V20.8635L20.1 21.9645C19.7636 22.1973 19.6758 22.6567 19.9027 22.9972C20.1296 23.3376 20.5874 23.4334 20.9318 23.2125L21.75 22.6658V23.25C21.75 23.6642 22.0858 24 22.5 24C22.9142 24 23.25 23.6642 23.25 23.25V22.6658L24.0697 23.2125C24.4136 23.4231 24.8625 23.324 25.0858 22.9883C25.3092 22.6526 25.2271 22.2003 24.9 21.9645L23.25 20.8635V20.019L24.0697 20.565C24.4136 20.7756 24.8625 20.6765 25.0858 20.3408C25.3092 20.0051 25.2271 19.5528 24.9 19.317L23.25 18.2168V14.8935C23.5185 14.8239 23.7758 14.7166 24.0143 14.5748L26.3655 16.926L25.9762 18.8723C25.8953 19.2781 26.1585 19.6728 26.5642 19.7543C26.6136 19.7645 26.6639 19.7695 26.7142 19.7693C27.0707 19.7693 27.378 19.5185 27.4492 19.1693L27.642 18.2033L28.242 18.8033L27.8535 20.7533C27.7726 21.1591 28.0357 21.5538 28.4415 21.6353C28.4909 21.6449 28.5412 21.6497 28.5915 21.6495C28.948 21.6496 29.2552 21.3988 29.3265 21.0495L29.5193 20.0843L29.9198 20.4848C30.1113 20.6733 30.3889 20.7452 30.648 20.6736C30.907 20.6019 31.1081 20.3975 31.1756 20.1373C31.243 19.8771 31.1666 19.6008 30.975 19.4123L30.5745 19.0118L31.5405 18.8183C31.9456 18.7359 32.2077 18.3413 32.1265 17.9359C32.0453 17.5306 31.6513 17.2674 31.2458 17.3475L29.2995 17.7368L28.6995 17.1368L29.6655 16.944C29.9288 16.892 30.1443 16.7032 30.2305 16.4489C30.3166 16.1947 30.2603 15.9138 30.0829 15.7124C29.9054 15.511 29.6338 15.4198 29.3708 15.4733L27.4253 15.8625L25.074 13.5113C25.2158 13.2738 25.3234 13.0175 25.3935 12.75H28.716L29.817 14.4C30.0469 14.7446 30.5126 14.8376 30.8573 14.6078C31.2019 14.3779 31.2949 13.9121 31.065 13.5675L30.519 12.75H31.3628L32.4637 14.4C32.6936 14.7446 33.1594 14.8376 33.504 14.6078C33.8486 14.3779 33.9416 13.9121 33.7118 13.5675L33.1658 12.75H33.75C34.1642 12.75 34.5 12.4142 34.5 12C34.5 11.5858 34.1642 11.25 33.75 11.25H33.1658L33.7118 10.431C33.9416 10.0864 33.8486 9.62064 33.504 9.39075C33.1594 9.16086 32.6936 9.25388 32.4637 9.5985L31.3628 11.25H30.519L31.065 10.431C31.2949 10.0864 31.2019 9.62064 30.8573 9.39075C30.5126 9.16086 30.0469 9.25388 29.817 9.5985L28.716 11.25H25.3935C25.3239 10.9815 25.2166 10.7242 25.0747 10.4858L27.426 8.1345L29.3715 8.52375C29.4209 8.53363 29.4711 8.53866 29.5215 8.53875C29.9083 8.54111 30.2334 8.24893 30.2723 7.8641C30.3111 7.47927 30.0509 7.128 29.6715 7.053L28.7055 6.86025L29.3055 6.26025L31.2517 6.6495C31.3012 6.65915 31.3514 6.66392 31.4017 6.66375C31.7871 6.66414 32.11 6.37249 32.1487 5.98912C32.1874 5.60576 31.9294 5.25543 31.5518 5.17875L30.5857 4.98525L30.9862 4.58475C31.1756 4.3929 31.2481 4.11463 31.1766 3.85476C31.1051 3.59489 30.9004 3.3929 30.6396 3.32488C30.3788 3.25686 30.1016 3.33315 29.9123 3.525L29.5117 3.9255L29.319 2.9625C29.2712 2.69521 29.0827 2.47461 28.8262 2.38574C28.5696 2.29686 28.285 2.3536 28.0822 2.53408C27.8793 2.71456 27.7898 2.99058 27.8483 3.25575L28.2367 5.20575L27.6367 5.80575L27.45 4.83375C27.3639 4.43285 26.9718 4.17542 26.5697 4.2558C26.1676 4.33617 25.9046 4.72456 25.9792 5.12775L26.3685 7.07775L24.0172 9.429C23.7781 9.28562 23.5198 9.17703 23.25 9.1065V5.78325L24.9 4.683C25.2271 4.44718 25.3092 3.99493 25.0858 3.6592C24.8625 3.32347 24.4136 3.22443 24.0697 3.435L23.25 3.981V3.1365L24.9 2.0355C25.2271 1.79968 25.3092 1.34743 25.0858 1.0117C24.8625 0.675967 24.4136 0.57693 24.0697 0.7875L23.25 1.33425V0.75C23.25 0.335786 22.9142 0 22.5 0C22.0858 0 21.75 0.335786 21.75 0.75V1.33425L20.9303 0.7875C20.5864 0.57693 20.1375 0.675967 19.9142 1.0117C19.6908 1.34743 19.7729 1.79968 20.1 2.0355L21.75 3.1365V3.981L20.9303 3.435C20.5864 3.22443 20.1375 3.32347 19.9142 3.6592C19.6908 3.99493 19.7729 4.44718 20.1 4.683L21.75 5.78325V9.1065C21.4815 9.17612 21.2242 9.28343 20.9858 9.42525L18.6345 7.074L19.0238 5.124C19.0756 4.86074 18.9831 4.58982 18.781 4.41329C18.5789 4.23675 18.298 4.18143 18.0441 4.26816C17.7902 4.35489 17.6018 4.57049 17.55 4.83375L17.3572 5.79975L16.7573 5.19975L17.1458 3.24975C17.2042 2.98458 17.1147 2.70856 16.9118 2.52808C16.709 2.3476 16.4244 2.29086 16.1678 2.37974C15.9113 2.46861 15.7228 2.68921 15.675 2.9565L15.4822 3.92175L15.0878 3.525C14.7943 3.23153 14.3185 3.23153 14.025 3.525C13.7315 3.81847 13.7315 4.29428 14.025 4.58775L14.4255 4.98825L13.4595 5.18175C13.0819 5.25843 12.8238 5.60876 12.8625 5.99212C12.9013 6.37549 13.2242 6.66714 13.6095 6.66675C13.6598 6.66688 13.7101 6.66211 13.7595 6.6525L15.7095 6.26325L16.3095 6.86325L15.3337 7.05C14.9543 7.125 14.6941 7.47627 14.733 7.8611C14.7718 8.24593 15.097 8.5381 15.4838 8.53575C15.5341 8.53562 15.5844 8.5306 15.6337 8.52075L17.5792 8.1315L19.9305 10.4828C19.7866 10.7218 19.6775 10.9802 19.6065 11.25H16.284L15.183 9.6C15.0343 9.37707 14.7779 9.2504 14.5105 9.26773C14.2431 9.28505 14.0052 9.44372 13.8865 9.68398C13.7678 9.92423 13.7863 10.2096 13.935 10.4325L14.481 11.25H13.6373L12.5363 9.6C12.3064 9.25537 11.8406 9.16236 11.496 9.39225C11.1514 9.62214 11.0584 10.0879 11.2882 10.4325L11.8343 11.25H11.25C10.8358 11.25 10.5 11.5858 10.5 12C10.5 12.4142 10.8358 12.75 11.25 12.75ZM21.4403 10.9403C22.0257 10.3567 22.9728 10.3567 23.5582 10.9403C24.1418 11.5257 24.1418 12.4728 23.5582 13.0583C22.9728 13.6418 22.0257 13.6418 21.4403 13.0583C20.8567 12.4728 20.8567 11.5257 21.4403 10.9403Z" fill="#F9B233"/>
</svg>
