<svg width="44" height="44" viewBox="0 0 44 44" fill="none" xmlns="http://www.w3.org/2000/svg">
<g clip-path="url(#clip0)">
<path d="M-3.05176e-05 41.8C-3.05176e-05 43.015 0.984943 44 2.19997 44H41.8C43.015 44 44 43.015 44 41.8C44 40.585 43.015 39.6 41.8 39.6H40.2365L42.2209 36.6241C43.3285 36.4032 44.0889 35.3793 43.9803 34.2551C43.8717 33.1309 42.9294 32.2715 41.8 32.2667H37.4V29.3333H38.8666C39.1511 29.3332 39.4098 29.1686 39.5305 28.911C39.6511 28.6534 39.6119 28.3492 39.4298 28.1307L35.7632 23.7307C35.6195 23.5709 35.4148 23.4797 35.2 23.4797C34.9852 23.4797 34.7804 23.5709 34.6368 23.7307L30.9701 28.1307C30.788 28.3492 30.7488 28.6534 30.8695 28.911C30.9901 29.1686 31.2488 29.3332 31.5333 29.3333H33V32.2667H24.2V29.3333H25.6666C25.9511 29.3332 26.2098 29.1686 26.3305 28.911C26.4511 28.6534 26.4119 28.3492 26.2298 28.1307L22.5632 23.7307C22.4195 23.5709 22.2148 23.4797 22 23.4797C21.7852 23.4797 21.5804 23.5709 21.4368 23.7307L17.7701 28.1307C17.588 28.3492 17.5488 28.6534 17.6695 28.911C17.7901 29.1686 18.0488 29.3332 18.3333 29.3333H19.8V32.2667H11V29.3333H12.4666C12.7511 29.3332 13.0098 29.1686 13.1305 28.911C13.2511 28.6534 13.2119 28.3492 13.0298 28.1307L9.36317 23.7307C9.2195 23.5709 9.01479 23.4797 8.79997 23.4797C8.58515 23.4797 8.38043 23.5709 8.23677 23.7307L4.5701 28.1307C4.38805 28.3492 4.34882 28.6534 4.46946 28.911C4.5901 29.1686 4.84884 29.3332 5.1333 29.3333H6.59997V32.2667H2.19997C0.984943 32.2667 -3.04222e-05 33.2516 -3.04222e-05 34.4667C-3.04222e-05 35.6817 0.984943 36.6666 2.19997 36.6666H3.76344L1.77904 39.6425C0.74645 39.8438 0.000872663 40.748 -3.05176e-05 41.8H-3.05176e-05ZM42.5333 41.8C42.5333 42.205 42.205 42.5333 41.8 42.5333H2.19997C1.79496 42.5333 1.46664 42.205 1.46664 41.8C1.46664 41.395 1.79496 41.0667 2.19997 41.0667H41.8C42.205 41.0667 42.5333 41.395 42.5333 41.8ZM11.0968 36.6666L9.14097 39.6H7.2343L9.1901 36.6666H11.0968ZM32.9032 39.6L34.859 36.6666H36.7656L34.8098 39.6H32.9032ZM31.1432 39.6H29.2365L31.1923 36.6666H33.099L31.1432 39.6ZM27.4765 39.6H25.5698L27.5256 36.6666H29.4323L27.4765 39.6ZM23.8098 39.6H21.9032L23.859 36.6666H25.7656L23.8098 39.6ZM20.1432 39.6H18.2365L20.1923 36.6666H22.099L20.1432 39.6ZM16.4765 39.6H14.5698L16.5256 36.6666H18.4323L16.4765 39.6ZM12.8098 39.6H10.9032L12.859 36.6666H14.7656L12.8098 39.6ZM36.5698 39.6L38.5256 36.6666H40.4323L38.4765 39.6H36.5698ZM33.7333 27.8667H33.099L35.2 25.3455L37.301 27.8667H36.6666C36.2616 27.8667 35.9333 28.195 35.9333 28.6V32.2667H34.4666V28.6C34.4666 28.195 34.1383 27.8667 33.7333 27.8667ZM20.5333 27.8667H19.899L22 25.3455L24.101 27.8667H23.4666C23.0616 27.8667 22.7333 28.195 22.7333 28.6V32.2667H21.2666V28.6C21.2666 28.195 20.9383 27.8667 20.5333 27.8667ZM7.3333 27.8667H6.69897L8.79997 25.3455L10.901 27.8667H10.2666C9.86163 27.8667 9.5333 28.195 9.5333 28.6V32.2667H8.06664V28.6C8.06664 28.195 7.73831 27.8667 7.3333 27.8667ZM1.46664 34.4667C1.46664 34.0616 1.79496 33.7333 2.19997 33.7333H41.8C42.205 33.7333 42.5333 34.0616 42.5333 34.4667C42.5333 34.8717 42.205 35.2 41.8 35.2H2.19997C1.79496 35.2 1.46664 34.8717 1.46664 34.4667ZM7.4301 36.6666L5.4743 39.6H3.56764L5.52344 36.6666H7.4301Z" fill="#F9B233"/>
<path d="M22 21.9999C26.4529 21.9947 30.0614 18.3862 30.0667 13.9333C30.0667 7.0854 22.8001 0.46633 22.4906 0.188396C22.2117 -0.062636 21.7883 -0.062636 21.5094 0.188396C21.1999 0.46633 13.9333 7.0854 13.9333 13.9333C13.9386 18.3862 17.5471 21.9947 22 21.9999ZM22 1.74893C23.6067 3.3388 28.6 8.70313 28.6 13.9333C28.6 17.5783 25.6451 20.5333 22 20.5333C18.3549 20.5333 15.4 17.5783 15.4 13.9333C15.4 8.71046 20.3947 3.34026 22 1.74893Z" fill="#F9B233"/>
<path d="M22 19.0666C22.405 19.0666 22.7333 18.7383 22.7333 18.3333C22.7333 17.9283 22.405 17.6 22 17.6C19.976 17.5975 18.3358 15.9573 18.3333 13.9333C18.3333 13.5283 18.005 13.2 17.6 13.2C17.195 13.2 16.8667 13.5283 16.8667 13.9333C16.8699 16.767 19.1663 19.0634 22 19.0666Z" fill="#F9B233"/>
<path d="M5.86666 22C9.13395 21.9669 11.7582 19.2958 11.7333 16.0284C11.7333 11.0491 6.58239 6.26118 6.36239 6.06025C6.08196 5.803 5.65135 5.803 5.37093 6.06025C5.15093 6.26118 -8.36284e-06 11.0491 -8.36284e-06 16.0284C-0.0248371 19.2958 2.59937 21.9669 5.86666 22ZM5.86666 7.63252C7.11333 8.91951 10.2667 12.526 10.2667 16.0284C10.2927 18.4863 8.32445 20.5015 5.86666 20.5333C3.40887 20.5015 1.44057 18.4863 1.46666 16.0284C1.46666 12.5334 4.61999 8.92098 5.86666 7.63252Z" fill="#F9B233"/>
<path d="M5.86667 19.0666C6.27168 19.0666 6.6 18.7383 6.6 18.3332C6.6 17.9282 6.27168 17.5999 5.86667 17.5999C5.02846 17.5693 4.37279 16.8667 4.4 16.0284C4.4 15.6234 4.07167 15.295 3.66666 15.295C3.26166 15.295 2.93333 15.6234 2.93333 16.0284C2.90636 17.6766 4.21852 19.0357 5.86667 19.0666Z" fill="#F9B233"/>
<path d="M38.1333 22C41.4006 21.9669 44.0248 19.2958 44 16.0284C44 11.0491 38.8491 6.26118 38.6291 6.06025C38.3486 5.803 37.918 5.803 37.6376 6.06025C37.4176 6.26118 32.2667 11.0469 32.2667 16.0284C32.2418 19.2958 34.866 21.9669 38.1333 22ZM38.1333 7.63252C39.38 8.91951 42.5333 12.526 42.5333 16.0284C42.5333 18.4585 40.5634 20.4284 38.1333 20.4284C35.7033 20.4284 33.7333 18.4585 33.7333 16.0284C33.7333 12.5334 36.8867 8.92098 38.1333 7.63252Z" fill="#F9B233"/>
<path d="M38.1333 19.0666C38.5383 19.0666 38.8667 18.7383 38.8667 18.3332C38.8667 17.9282 38.5383 17.5999 38.1333 17.5999C37.2951 17.5693 36.6394 16.8667 36.6667 16.0284C36.6667 15.6234 36.3383 15.295 35.9333 15.295C35.5283 15.295 35.2 15.6234 35.2 16.0284C35.173 17.6766 36.4852 19.0357 38.1333 19.0666Z" fill="#F9B233"/>
</g>
<defs>
<clipPath id="clip0">
<rect width="44" height="44" fill="white"/>
</clipPath>
</defs>
</svg>
