<svg width="45" height="45" viewBox="0 0 45 45" fill="none" xmlns="http://www.w3.org/2000/svg">
<g clip-path="url(#clip0)">
<path d="M44.3578 19.5507L44.351 19.5267C44.2805 19.2351 44.0643 18.9957 43.7735 18.8993C43.6656 18.8634 41.0877 18.0248 37.4069 18.2831C34.0185 18.5207 29.0097 19.7737 24.3896 24.3937C19.7697 29.0137 18.5168 34.0224 18.2793 37.4107C18.0213 41.0916 18.8599 43.6692 18.8958 43.7771C18.9831 44.0405 19.1898 44.247 19.453 44.3344C19.5466 44.3655 21.4967 45 24.413 45C24.8601 45 25.3301 44.9851 25.8194 44.9508C29.2077 44.7133 34.2164 43.4604 38.8364 38.8405C47.011 30.6658 44.87 21.3376 44.3578 19.5507ZM35.3317 20.3242C36.0265 20.19 36.7341 20.0955 37.4545 20.042C39.2348 19.9098 40.743 20.0641 41.77 20.239C41.7261 20.2691 41.6841 20.3031 41.6452 20.342L35.3317 26.6555V20.3242ZM33.5739 20.7582V28.4133L27.6827 34.3045V23.9157C27.6827 23.887 27.6811 23.8587 27.6784 23.8307C29.5015 22.4192 31.4715 21.3929 33.5739 20.7582ZM20.0327 37.5336C20.3477 33.0401 22.2317 29.0374 25.6326 25.6366C25.7295 25.5398 25.827 25.4444 25.9249 25.3499V36.0232C25.9249 36.0357 25.9262 36.0479 25.9267 36.0603L20.2302 41.7568C20.0593 40.7486 19.9104 39.2795 20.0327 37.5336ZM25.7717 43.1919C24.0024 43.3232 22.5017 43.1715 21.4751 42.9978L24.2206 40.2523C24.2236 40.2523 24.2264 40.2527 24.2294 40.2527H34.3626C31.7604 41.9744 28.8845 42.9607 25.7717 43.1919ZM37.5935 37.5974C37.2815 37.9094 36.9642 38.2085 36.6421 38.495H25.978L31.0791 33.3938H40.8458C40.0379 34.7957 38.9774 36.2135 37.5935 37.5974ZM41.7372 31.636H32.8369L42.888 21.5849C42.9255 21.5473 42.9582 21.5069 42.9874 21.4649C43.352 23.5854 43.5823 27.4404 41.7372 31.636Z" fill="#F9B233"/>
<path d="M20.6104 24.3935C15.9904 19.7735 10.9816 18.5206 7.59312 18.2829C3.91253 18.0248 1.33444 18.8633 1.22651 18.8991C0.935769 18.9956 0.719558 19.235 0.64907 19.5266L0.642215 19.5506C0.129989 21.3376 -2.01094 30.6658 6.16367 38.8404C8.75714 41.4339 11.7276 43.2366 14.9923 44.1983C15.0751 44.2227 15.1588 44.2343 15.2411 44.2343C15.6208 44.2343 15.971 43.9863 16.0838 43.6036C16.221 43.138 15.9547 42.6493 15.4891 42.5122C12.5094 41.6343 9.79012 39.9808 7.4067 37.5975C5.32924 35.52 3.97862 33.3664 3.12125 31.3046H11.8317L16.0738 35.5467C16.2455 35.7184 16.4704 35.8041 16.6953 35.8041C16.9202 35.8041 17.1452 35.7184 17.3168 35.5467C17.66 35.2035 17.66 34.647 17.3168 34.3037L16.3478 33.3349V23.1217C17.4006 23.8386 18.408 24.6772 19.3674 25.6365C19.7106 25.9797 20.2671 25.9797 20.6104 25.6365C20.9537 25.2933 20.9536 24.7368 20.6104 24.3935ZM7.47016 20.0365C7.85503 20.0635 8.23613 20.1029 8.6137 20.1529V25.6008L3.30459 20.2916C3.28438 20.2714 3.2632 20.2525 3.24158 20.2347C4.25003 20.0634 5.7214 19.9137 7.47016 20.0365ZM2.49714 29.5469V29.5468C1.50249 26.1962 1.70859 23.2418 2.01032 21.4779C2.02658 21.4972 2.04336 21.5164 2.06156 21.5347L10.0737 29.5469H2.49714V29.5469ZM14.5901 31.5771L10.3714 27.3585V20.4738C11.8401 20.8193 13.2477 21.349 14.5901 22.0604V31.5771Z" fill="#F9B233"/>
<path d="M16.6 39.5156C14.9016 39.0153 13.2891 38.2133 11.8074 37.132C11.4152 36.8459 10.8655 36.9318 10.5793 37.3239C10.2931 37.716 10.3791 38.2658 10.7712 38.552C12.4165 39.7528 14.2104 40.6442 16.1031 41.2018C16.186 41.2262 16.2697 41.2378 16.3519 41.2378C16.7316 41.2378 17.0819 40.9898 17.1946 40.6071C17.3318 40.1414 17.0656 39.6527 16.6 39.5156Z" fill="#F9B233"/>
<path d="M9.69363 35.3162L9.69055 35.3132C9.34734 34.9701 8.79248 34.9716 8.44909 35.3147C8.10588 35.658 8.10746 36.2161 8.45068 36.5593C8.62233 36.7309 8.84724 36.8167 9.07215 36.8167C9.29706 36.8167 9.52206 36.7309 9.69363 36.5593C10.0368 36.2161 10.0368 35.6595 9.69363 35.3162Z" fill="#F9B233"/>
<path d="M11.2633 11.1618H6.50433V7.33864H9.78265C10.2681 7.33864 10.6616 6.94516 10.6616 6.45974C10.6616 5.97432 10.2681 5.58083 9.78265 5.58083H6.50433V1.75769H11.2632C11.7487 1.75769 12.1422 1.3642 12.1422 0.878782C12.1422 0.393364 11.7487 -0.00012207 11.2632 -0.00012207H5.62552C5.1401 -0.00012207 4.74661 0.393364 4.74661 0.878782V12.0406C4.74661 12.526 5.1401 12.9195 5.62552 12.9195H11.2633C11.7488 12.9195 12.1422 12.526 12.1422 12.0406C12.1422 11.5552 11.7488 11.1618 11.2633 11.1618Z" fill="#F9B233"/>
<path d="M33.7497 0C30.1878 0 27.2899 2.89784 27.2899 6.45977C27.2899 10.0217 30.1878 12.9195 33.7497 12.9195C37.3116 12.9195 40.2095 10.0217 40.2095 6.45977C40.2095 2.89784 37.3116 0 33.7497 0ZM33.7497 11.1618C31.157 11.1618 29.0476 9.05254 29.0476 6.45977C29.0476 3.867 31.1569 1.75772 33.7497 1.75772C36.3425 1.75772 38.4517 3.867 38.4517 6.45977C38.4517 9.05254 36.3424 11.1618 33.7497 11.1618Z" fill="#F9B233"/>
<path d="M23.8654 9.78452C22.0321 11.6178 19.049 11.6178 17.2157 9.78452C15.3824 7.9513 15.3824 4.96821 17.2157 3.13491C19.049 1.3016 22.032 1.3016 23.8654 3.13491C24.2086 3.47812 24.7651 3.47812 25.1084 3.13491C25.4516 2.79169 25.4516 2.23517 25.1084 1.89187C22.5897 -0.626718 18.4916 -0.626718 15.9729 1.89187C13.4542 4.41055 13.4542 8.50879 15.9729 11.0274C17.2322 12.2868 18.8864 12.9164 20.5406 12.9164C22.1949 12.9164 23.8491 12.2867 25.1085 11.0275C25.4517 10.6843 25.4517 10.1277 25.1085 9.78444C24.7652 9.44131 24.2087 9.44131 23.8654 9.78452Z" fill="#F9B233"/>
<path d="M22.5059 14.9728C22.0205 14.9728 21.627 15.3663 21.627 15.8517V18.3371C21.627 18.8226 22.0205 19.216 22.5059 19.216C22.9913 19.216 23.3848 18.8226 23.3848 18.3371V15.8517C23.3847 15.3663 22.9913 14.9728 22.5059 14.9728Z" fill="#F9B233"/>
<path d="M27.635 17.3942C27.2917 17.0509 26.7352 17.0509 26.392 17.3942L24.5998 19.1862C24.2566 19.5295 24.2565 20.086 24.5998 20.4292C24.7715 20.6008 24.9964 20.6866 25.2213 20.6866C25.4462 20.6866 25.6712 20.6008 25.8428 20.4292L27.6349 18.6371C27.9782 18.2938 27.9783 17.7373 27.635 17.3942Z" fill="#F9B233"/>
<path d="M20.4031 19.1602L18.608 17.3651C18.2647 17.0218 17.7083 17.022 17.365 17.3651C17.0218 17.7083 17.0217 18.2648 17.365 18.608L19.1601 20.4032C19.3318 20.5748 19.5567 20.6606 19.7816 20.6606C20.0065 20.6606 20.2315 20.5748 20.4031 20.4032C20.7463 20.06 20.7464 19.5035 20.4031 19.1602Z" fill="#F9B233"/>
</g>
<defs>
<clipPath id="clip0">
<rect width="45" height="45" fill="white"/>
</clipPath>
</defs>
</svg>
