<svg width="71" height="59" viewBox="0 0 71 59" fill="none" xmlns="http://www.w3.org/2000/svg">
<path d="M45.6601 27.477C45.6601 24.0348 45.6904 20.5625 45.6299 17.1203C45.6299 16.8485 44.9949 16.3654 44.6623 16.3654C38.5541 16.305 32.4761 16.3352 26.368 16.3654C26.0353 16.3654 25.4003 16.8485 25.3701 17.1203C25.2794 18.5696 25.3096 20.019 25.3096 21.5287C26.0958 21.5287 26.7006 21.4381 27.2751 21.5589C27.5775 21.6193 28.0311 22.0118 28.0311 22.2534C28.0311 22.5251 27.6077 23.0384 27.3658 23.0384C21.2274 23.5819 15.1192 25.7257 8.85987 23.3404C5.71506 22.1326 4.20314 23.1894 3.23551 26.3598C3.11455 26.7221 2.72145 26.9637 2.41907 27.2656C2.14692 26.9033 1.84453 26.5712 1.63286 26.2088C1.54215 26.0579 1.60263 25.8163 1.60263 25.6049C1.60263 18.2073 1.63286 10.8097 1.57239 3.41201C1.57239 2.14384 1.90501 1.60034 3.26574 1.60034C24.7351 1.63054 46.2044 1.63054 67.6738 1.60034C68.9135 1.60034 69.3671 2.02306 69.3369 3.26104C69.3066 20.019 69.3066 36.7769 69.3369 53.5348C69.3369 54.8332 68.8531 55.1653 67.6435 55.1653C58.2091 55.1351 48.8049 55.1653 39.3705 55.1049C38.8565 55.1049 37.9191 54.652 37.8888 54.3501C37.7679 53.2631 38.7355 53.4744 39.4008 53.4744C48.1699 53.4744 56.9391 53.4744 65.7083 53.4744C66.2828 53.4744 66.8876 53.4744 67.583 53.4744C67.7342 48.6735 68.2785 43.9934 64.287 40.4304C62.4123 38.7697 60.2048 37.7733 57.6951 37.8639C52.1614 38.0451 48.1094 35.8107 45.3577 31.0098C43.6039 27.9903 40.9429 25.9673 37.8284 24.4576C37.3748 24.2462 37.1329 23.5819 36.77 23.129C37.3445 23.0686 38.0703 22.7667 38.4634 23.0082C40.3986 24.1858 42.2432 25.4842 44.0877 26.7523C44.4808 27.0241 44.8134 27.3562 45.1763 27.6582C45.388 27.628 45.5089 27.5374 45.6601 27.477ZM47.414 27.5072C54.1874 27.5072 60.8701 27.5072 67.6133 27.5072C67.6133 23.7631 67.6133 20.1096 67.6133 16.4258C60.8399 16.4258 54.1874 16.4258 47.414 16.4258C47.414 20.1699 47.414 23.7933 47.414 27.5072ZM14.4238 3.4422C14.4238 7.2769 14.4238 10.9002 14.4238 14.5236C21.1972 14.5236 27.8799 14.5236 34.5021 14.5236C34.5021 10.7795 34.5021 7.12593 34.5021 3.4422C27.7589 3.4422 21.1367 3.4422 14.4238 3.4422ZM36.4071 14.5236C43.2108 14.5236 49.8935 14.5236 56.546 14.5236C56.546 10.7795 56.546 7.12593 56.546 3.4724C49.8028 3.4724 43.1201 3.4724 36.4071 3.4724C36.4071 7.21651 36.4071 10.8097 36.4071 14.5236ZM67.6435 41.5476C67.6738 40.823 67.7342 40.37 67.7342 39.8869C67.7342 36.8675 67.6738 33.848 67.7645 30.8588C67.7947 29.651 67.4621 29.2283 66.1921 29.2283C60.1141 29.2887 54.0362 29.2585 47.928 29.2887C47.5047 29.2887 47.0511 29.3491 46.4766 29.3793C48.5933 33.848 51.8893 36.2636 56.7879 36.2334C60.0234 36.2032 62.9566 36.9883 65.4059 39.2226C66.1316 39.8567 66.7666 40.6116 67.6435 41.5476ZM3.26574 22.6157C5.80578 20.6229 8.16438 21.2569 10.523 21.9514C13.5771 22.8874 16.6312 23.0082 19.7457 22.4043C23.9186 21.5891 23.8884 21.6193 23.6767 17.3619C23.6465 16.6372 23.4651 16.2749 22.6486 16.2749C16.5102 16.305 10.3718 16.2749 4.26361 16.305C3.93099 16.305 3.35646 16.8184 3.32622 17.0901C3.20527 18.8112 3.26574 20.5021 3.26574 22.6157ZM12.5187 3.50259C9.34368 3.50259 6.35007 3.50259 3.35646 3.50259C3.35646 7.2769 3.35646 10.9002 3.35646 14.5538C6.47103 14.5538 9.46464 14.5538 12.5187 14.5538C12.5187 10.8399 12.5187 7.18632 12.5187 3.50259ZM67.6133 3.38182C64.7104 3.38182 61.9284 3.35162 59.1163 3.41201C58.8441 3.41201 58.3905 4.0159 58.3603 4.37823C58.2696 5.88796 58.3301 7.39768 58.3301 8.9074C58.3301 10.7795 58.3301 12.6817 58.3301 14.584C61.5656 14.584 64.5592 14.584 67.6133 14.584C67.6133 10.8398 67.6133 7.18632 67.6133 3.38182Z" fill="#F9B233"/>
<path d="M32.204 22.5553C31.9016 23.0988 31.6294 23.4913 31.448 23.9141C29.1197 28.9263 26.7913 33.9386 24.4629 38.9509C23.8279 40.3398 23.9489 40.521 25.4306 40.5512C27.3961 40.5814 29.3313 40.5512 31.5387 40.5512C31.5387 39.8869 31.4783 39.283 31.5387 38.7093C31.6294 37.9847 31.1154 36.7769 32.2947 36.7467C33.595 36.7467 33.0809 38.0149 33.1111 38.7697C33.2019 40.0681 33.0507 41.3966 33.1716 42.695C33.2321 43.2989 33.7159 43.8424 33.9881 44.4161C34.4719 45.3823 35.2278 46.2882 35.3488 47.2846C35.5605 49.4284 35.4395 51.6024 35.4093 53.7764C35.379 55.7994 34.0485 57.1884 32.3249 57.1884C30.5711 57.1884 29.3616 55.8296 29.3313 53.7462C29.3011 51.5722 29.1801 49.3982 29.3616 47.2544C29.4523 46.3183 30.1175 45.3823 30.5711 44.5067C30.9037 43.8726 31.3573 43.2687 31.7806 42.6648C31.6597 42.5138 31.5387 42.3629 31.4178 42.2119C29.422 42.2119 27.4263 42.2119 25.4306 42.2119C22.5579 42.2119 21.7415 40.8833 22.951 38.2564C25.3096 33.1838 27.638 28.1413 29.9361 23.0384C30.4199 21.9514 30.9944 21.0154 32.2947 21.0154C33.595 20.9852 34.1997 21.891 34.6835 22.978C37.0724 28.2017 39.4915 33.3951 41.8803 38.5886C42.8782 40.7324 41.971 42.1515 39.6427 42.2119C38.4936 42.2421 37.3143 42.2723 36.1652 42.1817C35.8024 42.1515 35.4697 41.6684 35.1069 41.3966C35.4697 41.1249 35.8024 40.672 36.1652 40.6116C37.3143 40.521 38.4936 40.5814 39.6427 40.5814C40.4591 40.5814 40.7917 40.2191 40.4289 39.434C37.8888 33.9688 35.3488 28.5036 32.7785 23.0384C32.7483 22.9176 32.5971 22.8572 32.204 22.5553ZM33.7159 50.4852C33.7159 49.368 33.8671 48.2508 33.6554 47.194C33.5345 46.6203 32.9297 45.8352 32.4156 45.7145C31.4783 45.5333 30.9944 46.2881 30.9642 47.2242C30.934 49.4888 30.8735 51.7533 31.0247 53.9877C31.0549 54.501 31.9016 54.954 32.3552 55.4371C32.8088 54.954 33.5345 54.501 33.6252 53.9274C33.8369 52.8102 33.7159 51.6326 33.7159 50.4852Z" fill="#F9B233"/>
<path d="M3.23554 53.5348C6.98511 53.5348 10.4928 53.5348 14.0004 53.5348C17.6895 53.5348 21.3484 53.5046 25.0375 53.565C25.5818 53.565 26.5192 53.9877 26.5494 54.2897C26.6401 55.3465 25.7027 55.1653 25.0375 55.1653C17.7803 55.1653 10.523 55.1653 3.29602 55.1955C2.08648 55.1955 1.60266 54.8634 1.60266 53.565C1.66314 46.3183 1.60266 39.0717 1.66314 31.8552C1.66314 31.3419 2.17719 30.8588 2.44934 30.3455C2.72149 30.8588 3.2053 31.3721 3.2053 31.8854C3.26578 38.3168 3.23554 44.7482 3.23554 51.1796C3.23554 51.8741 3.23554 52.5686 3.23554 53.5348Z" fill="#F9B233"/>
<path d="M56.0017 45.0805C56.425 44.4465 56.9089 43.2085 57.302 43.2387C58.5115 43.3293 58.0277 44.537 58.0882 45.2919C58.1486 45.926 58.0882 46.5903 57.9672 47.2243C57.6346 48.7643 56.425 49.7607 54.8829 49.8815C53.4012 50.0022 51.8288 49.1568 51.4659 47.7075C51.0426 46.0468 50.1052 45.2013 48.4723 44.7786C46.5673 44.2653 45.388 42.0611 45.7509 40.0984C45.8113 39.8267 46.1137 39.3738 46.3254 39.3738C46.658 39.3738 47.1116 39.6153 47.2628 39.8871C47.4744 40.2494 47.5349 40.7627 47.5652 41.1854C47.6256 42.4234 48.3211 43.0877 49.5004 43.3293C51.224 43.7218 52.3428 44.7182 52.8267 46.4393C53.0988 47.4961 53.7036 48.3113 54.9434 48.1C56.2134 47.8886 56.4855 46.9526 56.425 45.8656C56.425 45.6542 56.425 45.4731 56.425 45.2617C56.2436 45.2315 56.1227 45.1409 56.0017 45.0805Z" fill="#F9B233"/>
<path d="M7.92251 41.2456C7.92251 40.6115 7.86203 40.37 7.92251 40.219C8.16442 39.7963 8.4668 39.4339 8.73895 39.0414C8.98086 39.4037 9.31348 39.7359 9.46467 40.1586C9.58563 40.5209 9.34372 41.0644 9.55539 41.3362C10.009 41.9703 10.5533 42.7251 11.2185 42.9365C12.1257 43.2686 12.9119 42.6647 13.1235 41.6683C13.5469 39.4641 14.6959 38.2262 17.0545 38.0148C18.1431 37.9242 18.4153 36.8976 18.5967 35.871C18.7177 35.0859 18.4153 33.6366 19.7155 33.8178C20.9855 33.9989 20.3203 35.3275 20.1993 36.1125C19.8365 38.6489 19.2619 39.2226 16.7219 39.7057C15.4519 39.9472 15.1193 40.8531 14.8169 41.9401C14.3633 43.631 13.0328 44.6878 11.4604 44.718C10.009 44.7784 8.67847 43.9329 8.16442 42.544C7.98299 42.0307 7.95275 41.3966 7.92251 41.2456Z" fill="#F9B233"/>
<path d="M9.88797 35.539C9.34368 36.0221 9.01105 36.2938 8.70867 36.5958C8.46676 36.2335 8.04342 35.9013 7.98294 35.5088C7.95271 35.2068 8.40628 34.8747 8.67843 34.5728C9.01105 34.8143 9.34368 35.0861 9.88797 35.539Z" fill="#F9B233"/>
<path d="M33.7159 50.485C33.7159 51.6324 33.8671 52.81 33.6554 53.9272C33.5647 54.5009 32.8088 54.9236 32.3854 55.4369C31.9319 54.9538 31.0852 54.5009 31.0549 53.9876C30.9037 51.7532 30.9642 49.4886 30.9945 47.224C30.9945 46.288 31.5085 45.5331 32.4459 45.7143C32.96 45.8351 33.595 46.6201 33.6857 47.1938C33.8671 48.2506 33.7159 49.3678 33.7159 50.485Z" fill="white"/>
<path d="M51.5567 19.2337C51.0124 19.596 50.6495 20.0188 50.4378 19.9584C50.1052 19.8678 49.7424 19.4451 49.6819 19.1129C49.6516 18.9318 50.1657 18.3883 50.4076 18.4184C50.7402 18.4486 51.0124 18.8412 51.5567 19.2337Z" fill="#F9B233"/>
<path d="M54.9131 19.234C54.399 19.5661 54.0664 19.9586 53.8245 19.9284C53.5221 19.8983 53.2802 19.4755 53.0383 19.2038C53.3407 18.932 53.5826 18.5093 53.9152 18.4187C54.0966 18.3583 54.4292 18.8414 54.9131 19.234Z" fill="#F9B233"/>
<path d="M32.5367 6.28034C31.9017 6.64268 31.569 7.00501 31.2364 7.00501C30.9945 7.00501 30.5712 6.49171 30.5712 6.21996C30.5712 5.94821 31.0247 5.46509 31.2667 5.49529C31.5993 5.46509 31.9319 5.85762 32.5367 6.28034Z" fill="#F9B233"/>
<path d="M54.8829 6.25014C54.2781 6.61248 53.9455 6.97481 53.6129 6.97481C53.3709 6.97481 52.9778 6.4917 52.9778 6.21995C52.9778 5.9482 53.4012 5.46509 53.6431 5.46509C53.9455 5.49528 54.2781 5.85762 54.8829 6.25014Z" fill="#F9B233"/>
</svg>
