<svg width="59" height="59" viewBox="0 0 59 59" fill="none" xmlns="http://www.w3.org/2000/svg">
<g clip-path="url(#clip0)">
<path d="M56.2132 38.7205H38.7114V21.2048C38.7114 20.695 38.2993 20.283 37.7895 20.283H20.2886V2.76733C20.2886 2.25754 19.8766 1.84546 19.3668 1.84546H0.92926C0.419463 1.84546 0.00738525 2.25754 0.00738525 2.76733V21.2048V39.6423V58.0798C0.00738525 58.5896 0.419463 59.0017 0.92926 59.0017H19.352H19.3668H37.7757H37.7904H56.2132C56.723 59.0017 57.1351 58.5896 57.1351 58.0798V39.6423C57.1351 39.1325 56.7221 38.7205 56.2132 38.7205ZM1.85114 22.1267H18.4301V38.7205H1.85114V22.1267ZM20.2886 40.5642H36.8538V57.158H20.2886V40.5642ZM36.8676 38.7205H20.2886V22.1267H36.8676V38.7205ZM1.85114 3.68921H18.4449V20.283H1.85114V3.68921ZM1.85114 40.5642H18.4301V57.158H1.85114V40.5642ZM55.2913 57.158H38.7114V40.5642H55.2904V57.158H55.2913Z" fill="#F9B233"/>
<path d="M16.6011 4.61108C16.0913 4.61108 15.6793 5.02316 15.6793 5.53296V17.5173H3.69489C3.18509 17.5173 2.77301 17.9294 2.77301 18.4392C2.77301 18.949 3.18509 19.3611 3.69489 19.3611H16.6011C17.1109 19.3611 17.523 18.949 17.523 18.4392V5.53296C17.523 5.02316 17.1109 4.61108 16.6011 4.61108Z" fill="#F9B233"/>
<path d="M16.6011 23.0486C16.0913 23.0486 15.6793 23.4607 15.6793 23.9705V35.9548H3.69489C3.18509 35.9548 2.77301 36.3669 2.77301 36.8767C2.77301 37.3865 3.18509 37.7986 3.69489 37.7986H16.6011C17.1109 37.7986 17.523 37.3865 17.523 36.8767V23.9705C17.523 23.4607 17.1109 23.0486 16.6011 23.0486Z" fill="#F9B233"/>
<path d="M16.6011 41.4861C16.0913 41.4861 15.6793 41.8982 15.6793 42.408V54.3923H3.69489C3.18509 54.3923 2.77301 54.8044 2.77301 55.3142C2.77301 55.824 3.18509 56.2361 3.69489 56.2361H16.6011C17.1109 56.2361 17.523 55.824 17.523 55.3142V42.408C17.523 41.8982 17.1109 41.4861 16.6011 41.4861Z" fill="#F9B233"/>
<path d="M22.1324 37.7986H35.0386C35.5484 37.7986 35.9605 37.3865 35.9605 36.8767V23.9705C35.9605 23.4607 35.5484 23.0486 35.0386 23.0486C34.5288 23.0486 34.1168 23.4607 34.1168 23.9705V35.9548H22.1324C21.6226 35.9548 21.2105 36.3669 21.2105 36.8767C21.2105 37.3865 21.6226 37.7986 22.1324 37.7986Z" fill="#F9B233"/>
<path d="M35.0386 41.4861C34.5288 41.4861 34.1168 41.8982 34.1168 42.408V54.3923H22.1324C21.6226 54.3923 21.2105 54.8044 21.2105 55.3142C21.2105 55.824 21.6226 56.2361 22.1324 56.2361H35.0386C35.5484 56.2361 35.9605 55.824 35.9605 55.3142V42.408C35.9605 41.8982 35.5484 41.4861 35.0386 41.4861Z" fill="#F9B233"/>
<path d="M40.5699 56.2361H53.4761C53.9859 56.2361 54.398 55.824 54.398 55.3142V42.408C54.398 41.8982 53.9859 41.4861 53.4761 41.4861C52.9663 41.4861 52.5543 41.8982 52.5543 42.408V54.3923H40.5699C40.0601 54.3923 39.648 54.8044 39.648 55.3142C39.648 55.824 40.0601 56.2361 40.5699 56.2361Z" fill="#F9B233"/>
<path d="M22.114 4.59277H36.863C37.3728 4.59277 37.7849 4.18069 37.7849 3.6709C37.7849 3.1611 37.3728 2.74902 36.863 2.74902H22.114C21.6042 2.74902 21.1921 3.1611 21.1921 3.6709C21.1921 4.18069 21.6051 4.59277 22.114 4.59277Z" fill="#F9B233"/>
<path d="M22.114 8.28198H36.863C37.3728 8.28198 37.7849 7.8699 37.7849 7.36011C37.7849 6.85031 37.3728 6.43823 36.863 6.43823H22.114C21.6042 6.43823 21.1921 6.85031 21.1921 7.36011C21.1921 7.8699 21.6051 8.28198 22.114 8.28198Z" fill="#F9B233"/>
<path d="M22.114 11.9714H36.863C37.3728 11.9714 37.7849 11.5594 37.7849 11.0496C37.7849 10.5398 37.3728 10.1277 36.863 10.1277H22.114C21.6042 10.1277 21.1921 10.5398 21.1921 11.0496C21.1921 11.5594 21.6051 11.9714 22.114 11.9714Z" fill="#F9B233"/>
<path d="M22.114 15.6607H36.863C37.3728 15.6607 37.7849 15.2486 37.7849 14.7388C37.7849 14.229 37.3728 13.8169 36.863 13.8169H22.114C21.6042 13.8169 21.1921 14.229 21.1921 14.7388C21.1921 15.2486 21.6051 15.6607 22.114 15.6607Z" fill="#F9B233"/>
<path d="M22.114 19.3484H36.863C37.3728 19.3484 37.7849 18.9363 37.7849 18.4265C37.7849 17.9167 37.3728 17.5046 36.863 17.5046H22.114C21.6042 17.5046 21.1921 17.9167 21.1921 18.4265C21.1921 18.9363 21.6051 19.3484 22.114 19.3484Z" fill="#F9B233"/>
<path d="M50.9188 0.319029C50.2357 1.11369 44.2426 8.19092 44.2426 11.9881C44.2426 15.2497 46.3731 18.019 49.3138 18.9898V22.1251H48.392C47.8822 22.1251 47.4701 22.5371 47.4701 23.0469C47.4701 23.5567 47.8822 23.9688 48.392 23.9688H48.3929V31.802C48.3929 31.8038 48.392 31.8047 48.392 31.8066C48.392 33.5858 49.8393 35.0332 51.6185 35.0332C53.3978 35.0332 54.8451 33.5858 54.8451 31.8066C54.8451 31.8047 54.8442 31.8038 54.8442 31.802V23.9688C55.354 23.9688 55.7661 23.5567 55.7661 23.0469C55.7661 22.5371 55.354 22.1251 54.8442 22.1251H53.9223V18.9898C56.8622 18.0181 58.9926 15.2488 58.9926 11.9881C58.9926 8.19092 52.9995 1.11369 52.3164 0.319029C51.967 -0.0884395 51.2682 -0.0884395 50.9188 0.319029ZM53.0013 31.8094C52.9995 32.5708 52.38 33.1894 51.6185 33.1894C50.8571 33.1894 50.2376 32.5708 50.2357 31.8094C50.2357 31.8084 50.2366 31.8075 50.2366 31.8066V23.9688H53.0004V31.8066C53.0004 31.8075 53.0013 31.8084 53.0013 31.8094ZM52.0786 22.1251H51.1576V19.3401C51.3106 19.3502 51.4627 19.3631 51.6176 19.3631C51.7734 19.3631 51.9255 19.3493 52.0786 19.3401V22.1251ZM51.6176 17.5194C48.5671 17.5194 46.0864 15.0386 46.0864 11.9881C46.0864 9.65117 49.6061 4.83529 51.6176 2.36006C53.6301 4.83529 57.1489 9.64933 57.1489 11.9881C57.1489 15.0386 54.6681 17.5194 51.6176 17.5194Z" fill="#F9B233"/>
</g>
<defs>
<clipPath id="clip0">
<rect width="59" height="59" fill="white"/>
</clipPath>
</defs>
</svg>
