<svg width="72" height="72" viewBox="0 0 72 72" fill="none" xmlns="http://www.w3.org/2000/svg">
<path d="M6.75 70.866C7.37213 70.866 7.875 70.3631 7.875 69.741V59.616H65.25C68.9726 59.616 72 56.5886 72 52.866V7.86597C72 4.14334 68.9726 1.11597 65.25 1.11597C64.6279 1.11597 64.125 1.61884 64.125 2.24097V12.366H6.75C3.02737 12.366 0 15.3933 0 19.116V64.116C0 67.8386 3.02737 70.866 6.75 70.866ZM2.25 64.116C2.25 62.0257 3.68887 60.2786 5.625 59.7757V68.4573C3.68887 67.9533 2.25 66.2073 2.25 64.116ZM69.75 7.86597V47.8485C68.8196 47.0137 67.6609 46.4343 66.375 46.2172V3.52572C68.3111 4.02859 69.75 5.77572 69.75 7.86597ZM6.75 14.616H64.125V47.241C64.125 47.8631 64.6279 48.366 65.25 48.366C67.7318 48.366 69.75 50.3842 69.75 52.866C69.75 55.3477 67.7318 57.366 65.25 57.366H6.75C5.02087 57.366 3.44475 58.0252 2.25 59.0985V19.116C2.25 16.6342 4.26825 14.616 6.75 14.616Z" fill="#F9B233"/>
<path d="M65.2275 67.3032C65.2129 67.2267 65.1982 67.1524 65.1679 67.0804C65.1566 67.0568 65.1589 67.0298 65.1465 67.0062C65.1262 66.9668 65.0914 66.9409 65.0677 66.9049C65.025 66.8385 64.9811 66.7789 64.9249 66.7227C64.8709 66.6687 64.8124 66.627 64.7505 66.5865C64.7122 66.5607 64.6852 66.5235 64.6436 66.5033L60.1436 64.2533C60.1324 64.2477 60.12 64.2488 60.111 64.2443C60.0964 64.2375 60.0851 64.2263 60.0705 64.2207C60.0052 64.1937 59.9366 64.1925 59.868 64.1779C59.8027 64.1644 59.7409 64.143 59.6756 64.1408C59.6632 64.1408 59.652 64.134 59.6407 64.134H14.6407C14.0186 64.134 13.5157 64.6369 13.5157 65.259V69.759C13.5157 70.3812 14.0186 70.884 14.6407 70.884H59.6407H59.6419C59.6441 70.884 59.6452 70.8829 59.6475 70.8829C59.7915 70.8818 59.9355 70.8537 60.0705 70.7974C60.0862 70.7907 60.0975 70.7794 60.1132 70.7738C60.1234 70.7682 60.1346 70.7704 60.1436 70.7659L64.6436 68.5159C64.6549 68.5103 64.6616 68.5002 64.6706 68.4934C64.7865 68.4315 64.89 68.3528 64.9789 68.2527C64.998 68.2302 65.0092 68.2065 65.0272 68.1829C65.0689 68.1278 65.1139 68.0749 65.1454 68.0119C65.1577 67.9883 65.1555 67.9613 65.1667 67.9377C65.196 67.8657 65.2117 67.7914 65.2264 67.7149C65.2399 67.6452 65.2534 67.5788 65.2534 67.509C65.2534 67.4393 65.241 67.3729 65.2275 67.3032ZM56.5965 66.7137C56.1566 67.1535 56.1566 67.8645 56.5965 68.3044L56.9261 68.634H27.0157V66.384H56.9261L56.5965 66.7137ZM59.8635 68.3899L58.9826 67.509L59.8635 66.6282L61.6252 67.509L59.8635 68.3899ZM18.0157 66.384V68.634H15.7669V66.384H18.0157ZM22.5157 67.509C21.8936 67.509 21.3907 68.0119 21.3907 68.634H20.2657V66.384H21.3907C21.3907 67.0062 21.8936 67.509 22.5157 67.509C23.1379 67.509 23.6407 67.0062 23.6407 66.384H24.7657V68.634H23.6407C23.6407 68.0119 23.1367 67.509 22.5157 67.509Z" fill="#F9B233"/>
<path d="M11.2916 30.5538V52.8299C11.2916 52.8344 11.2894 52.8378 11.2894 52.8412C11.2894 53.4633 11.7922 53.9662 12.4144 53.9662H15.7916C16.4137 53.9662 16.9166 53.4633 16.9166 52.8412C16.9166 52.219 16.4137 51.7162 15.7916 51.7162H13.5416V49.4662H15.7916C16.4137 49.4662 16.9166 48.9633 16.9166 48.3412C16.9166 48.313 16.902 48.2872 16.8998 48.259C16.902 48.232 16.9166 48.2062 16.9166 48.178V34.8434C16.9166 34.2213 16.4137 33.7184 15.7916 33.7184H13.5416V31.4729H25.9324C26.5545 31.4729 27.0574 30.97 27.0574 30.3479C27.0574 30.3277 27.0473 30.313 27.0461 30.2928L27.0416 20.2252H50.652V33.7173L48.4538 33.7207C48.4346 33.7195 48.42 33.7094 48.4009 33.7094C48.3817 33.7094 48.366 33.7195 48.3469 33.7207L39.5336 33.733C39.4954 33.7285 39.4616 33.7094 39.4211 33.7094H39.42C39.3795 33.7094 39.3458 33.7285 39.3041 33.733L33.7804 33.7409H25.9065C25.2844 33.7409 24.7815 34.2438 24.7815 34.8659V48.3412C24.7815 48.9633 25.2844 49.4662 25.9065 49.4662H32.6565V51.7173H30.4132C29.7911 51.7173 29.2882 52.2202 29.2882 52.8423C29.2882 53.4644 29.7911 53.9673 30.4132 53.9673H33.6949C33.7241 53.9695 33.7511 53.9853 33.7815 53.9853C33.8119 53.9853 33.8389 53.9695 33.8681 53.9673H37.1587C37.7809 53.9673 38.2837 53.4644 38.2837 52.8423C38.2837 52.2202 37.7809 51.7173 37.1587 51.7173H34.9065V48.3637C34.9065 48.3558 34.911 48.349 34.911 48.3412C34.911 48.3333 34.9065 48.3265 34.9065 48.3187V35.9887L38.2927 35.983L38.277 47.2139V47.215C38.277 47.2724 38.3006 47.3208 38.3085 47.3748C38.3231 47.4693 38.3288 47.5672 38.3648 47.6527C38.4165 47.773 38.493 47.8799 38.5807 47.9744C38.5909 47.9857 38.5954 47.9992 38.6044 48.0093C38.7776 48.1825 39.0139 48.2827 39.2715 48.3142C39.3154 48.3198 39.3547 48.34 39.3997 48.34H39.4009H55.1486V51.715H52.8964C52.2743 51.715 51.7714 52.2179 51.7714 52.84C51.7714 53.4622 52.2743 53.965 52.8964 53.965H56.2736C56.8957 53.965 57.3986 53.4622 57.3986 52.84V19.1002C57.3986 18.478 56.8957 17.9752 56.2736 17.9752H51.8411C51.8175 17.974 51.7984 17.9617 51.7747 17.9617C51.7511 17.9617 51.732 17.974 51.7084 17.9752H12.4166C11.7945 17.9752 11.2916 18.478 11.2916 19.1002V30.1409C11.2781 30.2107 11.25 30.2737 11.25 30.3479C11.25 30.4222 11.2781 30.4852 11.2916 30.5538ZM14.6666 35.9684V47.2162H13.5416V35.9684H14.6666ZM14.6666 29.2229H13.5416V20.2252H14.6666V29.2229ZM16.9166 20.2252H21.4166V29.2229H16.9166V20.2252ZM24.7961 29.2229H23.6666V20.2252H24.7916L24.7961 29.2229ZM50.6486 46.0912H49.5259V35.9684L50.6486 35.9673V46.0912ZM52.8986 35.9639L55.1509 35.9605V39.3412H52.8986V35.9639ZM55.1509 29.2173H52.902V20.2252H55.1509V29.2173ZM52.902 31.4673H55.1509V33.7105L52.902 33.7139V31.4673ZM27.0326 42.715H29.2894V47.215H27.0326V42.715ZM29.2894 40.465H27.0326V35.9898H29.2894V40.465ZM31.5394 47.215V35.9898H32.6576V47.215H31.5394ZM47.2759 35.9718V46.0912H40.5293L40.5439 35.9819L47.2759 35.9718ZM52.8986 46.0912V41.5912H55.1509V46.0912H52.8986Z" fill="#F9B233"/>
<path d="M49.5236 51.7163H40.5349C39.9127 51.7163 39.4099 52.2192 39.4099 52.8413C39.4099 53.4634 39.9127 53.9663 40.5349 53.9663H49.5236C50.1458 53.9663 50.6486 53.4634 50.6486 52.8413C50.6486 52.2192 50.1458 51.7163 49.5236 51.7163Z" fill="#F9B233"/>
<path d="M27.0304 51.7163H19.1666C18.5445 51.7163 18.0416 52.2192 18.0416 52.8413C18.0416 53.4634 18.5445 53.9663 19.1666 53.9663H27.0304C27.6525 53.9663 28.1554 53.4634 28.1554 52.8413C28.1554 52.2192 27.6525 51.7163 27.0304 51.7163Z" fill="#F9B233"/>
<path d="M41.625 31.4908C42.2471 31.4908 42.75 30.9879 42.75 30.3658V23.6169C42.75 22.9948 42.2471 22.4919 41.625 22.4919H33.75C33.1279 22.4919 32.625 22.9948 32.625 23.6169V30.3658C32.625 30.9879 33.1279 31.4908 33.75 31.4908H41.625ZM34.875 24.7419H40.5V29.2408H34.875V24.7419Z" fill="#F9B233"/>
</svg>
